HIERARCHY
ROOT Hips
{
	OFFSET	0.000000	0.000000	0.000000
	CHANNELS 6 Xposition Yposition Zposition Zrotation Xrotation Yrotation
	JOINT LeftUpLeg
	{
		OFFSET	12.830505	-7.049846	-1.643436
		CHANNELS 3 Zrotation Xrotation Yrotation
		JOINT LeftLeg
		{
			OFFSET	0.620834	-39.957500	-1.919341
			CHANNELS 3 Zrotation Xrotation Yrotation
			JOINT LeftFoot
			{
				OFFSET	-0.413890	-44.704761	-3.870325
				CHANNELS 3 Zrotation Xrotation Yrotation
				JOINT LeftFootHeel
				{
					OFFSET	0.164738	-8.918193	-6.555130
					CHANNELS 3 Zrotation Xrotation Yrotation
					End Site
					{
						OFFSET	-0.604053	0.000000	21.044330
					}
				}
			}
		}
	}
	JOINT RightUpLeg
	{
		OFFSET	-12.830505	-7.049846	-1.643436
		CHANNELS 3 Zrotation Xrotation Yrotation
		JOINT RightLeg
		{
			OFFSET	-0.620834	-39.957500	-1.919341
			CHANNELS 3 Zrotation Xrotation Yrotation
			JOINT RightFoot
			{
				OFFSET	0.413890	-44.704761	-3.870325
				CHANNELS 3 Zrotation Xrotation Yrotation
				JOINT RightFootHeel
				{
					OFFSET	-0.164738	-8.918193	-6.555130
					CHANNELS 3 Zrotation Xrotation Yrotation
					End Site
					{
						OFFSET	0.604053	0.000000	21.044330
					}
				}
			}
		}
	}
	JOINT Spine
	{
		OFFSET	0.000000	12.498170	1.820647
		CHANNELS 3 Zrotation Xrotation Yrotation
		JOINT Spine1
		{
			OFFSET	0.000000	7.620000	0.000000
			CHANNELS 3 Zrotation Xrotation Yrotation
			JOINT LeftShoulder
			{
				OFFSET	9.167800	29.136339	-5.551221
				CHANNELS 3 Zrotation Xrotation Yrotation
				JOINT LeftArm
				{
					OFFSET	12.133453	-3.880866	1.461963
					CHANNELS 3 Zrotation Xrotation Yrotation
					JOINT LeftForeArm
					{
						OFFSET	2.507115	-31.664908	-1.069404
						CHANNELS 3 Zrotation Xrotation Yrotation
						JOINT LeftHand
						{
							OFFSET	4.116172	-24.512624	5.009439
							CHANNELS 3 Zrotation Xrotation Yrotation
							End Site
							{
								OFFSET	-0.213136	-10.931856	2.182134
							}
						}
					}
				}
			}
			JOINT RightShoulder
			{
				OFFSET	-9.167800	29.136339	-5.551221
				CHANNELS 3 Zrotation Xrotation Yrotation
				JOINT RightArm
				{
					OFFSET	-12.133453	-3.880866	1.461963
					CHANNELS 3 Zrotation Xrotation Yrotation
					JOINT RightForeArm
					{
						OFFSET	-2.507115	-31.664908	-1.069404
						CHANNELS 3 Zrotation Xrotation Yrotation
						JOINT RightHand
						{
							OFFSET	-4.116172	-24.512624	5.009439
							CHANNELS 3 Zrotation Xrotation Yrotation
							End Site
							{
								OFFSET	0.213136	-10.931856	2.182134
							}
						}
					}
				}
			}
			JOINT Neck
			{
				OFFSET	0.000000	32.926272	-3.635654
				CHANNELS 3 Zrotation Xrotation Yrotation
				JOINT Head
				{
					OFFSET	0.000000	12.481178	4.646143
					CHANNELS 3 Zrotation Xrotation Yrotation
					End Site
					{
						OFFSET	0.000000	17.715204	-2.222063
					}
				}
			}
		}
	}
}
MOTION
Frames:     6
Frame Time: 0.016667
8.839647	102.885521	13.856156	0.770590	-1.783886	16.897802	-7.204759	-9.096916	-16.245249	5.563180	17.535868	-13.918715	-2.755641	-1.277252	-21.855034	0.	0.	0.	-1.931794	-2.903053	-16.448462	0.362761	10.791124	6.949310	-1.648479	-7.147636	-8.405429	0.	0.	0.	0.000000	0.000000	-0.000001	4.556026	7.154595	-10.730712	1.405750	-2.782574	3.469998	-0.883415	3.906106	7.804003	-6.524723	-16.961298	-4.104682	10.751910	9.572535	-16.522877	-0.653571	1.656447	-3.464882	-10.939658	-6.925543	-0.803937	13.592140	-25.238312	17.608442	-7.270443	10.044976	10.083761	-0.168452	3.351050	17.335436	-7.663356	3.430604	16.239378	
8.671803	102.951718	13.706708	0.814519	-1.677375	17.133085	-7.301136	-9.203919	-16.485426	5.640679	17.362949	-13.805833	-2.914339	-1.131185	-22.002243	0.	0.	0.	-1.856951	-2.831527	-16.517887	0.408019	10.287200	6.975029	-1.774235	-6.836594	-8.618129	0.	0.	0.	0.000000	0.000000	0.000005	4.535987	7.106796	-10.824878	1.439491	-2.699216	3.518637	-0.994501	3.914297	7.855440	-6.501023	-17.065578	-3.898188	10.706644	9.653011	-16.565361	-0.609116	1.639986	-3.418430	-10.706946	-6.750131	-0.874415	13.482494	-25.082251	17.604506	-7.262252	10.091670	10.151814	-0.152835	3.627841	17.244144	-7.519967	3.744237	15.391374	
8.330279	103.078610	13.412132	0.937878	-1.487143	17.569515	-7.475448	-9.341858	-16.858751	5.750470	16.942642	-13.586153	-3.199495	-0.806866	-22.333189	0.	0.	0.	-1.742274	-2.703931	-16.586399	0.483025	9.366515	6.861689	-1.997545	-6.257091	-8.904714	0.	0.	0.	0.000000	0.000000	-0.000001	4.456567	7.099194	-10.877616	1.503290	-2.579544	3.501696	-1.182681	3.885231	7.868371	-6.477866	-17.280308	-3.486653	10.637406	9.776555	-16.528786	-0.500917	1.566629	-3.455892	-10.234016	-6.365479	-1.035224	13.353387	-24.250555	17.397060	-7.300809	10.200523	10.248985	-0.042741	4.803535	16.629032	-7.436088	3.880703	13.693636	
8.040266	103.184010	13.151635	1.077083	-1.332502	17.971569	-7.581375	-9.455426	-17.062534	5.805802	16.504189	-13.551784	-3.445897	-0.494501	-22.560471	0.	0.	0.	-1.696550	-2.582343	-16.546165	0.591095	8.592411	6.629145	-2.191828	-5.729306	-9.125606	0.	0.	0.	0.000000	0.000001	0.000001	4.339644	7.033422	-11.157410	1.582819	-2.360922	3.708379	-1.340733	3.826357	7.818217	-6.479398	-17.508459	-3.110056	10.582737	9.791848	-16.388393	-0.399271	1.607639	-3.282668	-9.750647	-5.949617	-1.127153	12.845311	-24.256557	17.206923	-7.327443	10.217864	10.260019	0.035352	5.314815	16.307520	-7.021980	4.956568	11.876908	
7.897918	103.251351	12.976903	1.224766	-1.186410	18.351456	-7.758500	-9.561629	-17.330610	5.819932	16.326860	-13.593632	-3.554807	-0.360957	-22.622715	0.	0.	0.	-1.807930	-2.579546	-16.713491	0.666103	8.241910	6.573730	-2.315490	-5.445412	-9.286972	0.	0.	0.	0.000000	0.000000	0.000003	4.246586	7.097867	-11.333222	1.606242	-2.407573	3.659950	-1.427665	3.795216	7.772259	-6.462877	-17.724861	-2.640890	10.605518	9.791216	-16.614710	-0.351769	1.491830	-3.369593	-9.191775	-5.506978	-1.024597	12.351131	-23.711578	16.766159	-7.380436	10.268270	10.270897	0.230658	6.405511	15.495104	-7.228486	4.641336	11.290064	
7.505715	103.346374	12.613648	1.302534	-1.119818	18.530531	-7.760855	-9.809307	-17.094290	5.933283	15.997440	-13.936972	-3.794732	-0.129236	-22.612148	0.	0.	0.	-1.660327	-2.435944	-16.365261	0.894229	7.332125	6.254633	-2.648437	-4.686062	-9.531441	0.	0.	0.	0.000000	0.000001	-0.000001	4.243007	7.323081	-11.400027	1.773290	-2.186642	3.959514	-1.763322	3.697490	7.539937	-6.449472	-18.273315	-2.333559	10.521336	9.746028	-16.261057	-0.197963	1.550926	-3.211293	-8.757838	-5.301216	-1.146219	11.797121	-23.127333	16.300022	-7.420503	10.371773	10.302316	0.396950	7.432923	14.740983	-6.521994	6.530831	8.589233	
